<svg preserveAspectRatio="none" width="100%" height="100%" overflow="visible" style="display: block;" viewBox="0 0 22 20" fill="none" xmlns="http://www.w3.org/2000/svg">
<path id="Vector (Stroke)" d="M20 6.5C20 5.30653 19.5256 4.16227 18.6816 3.31836C17.8377 2.47445 16.6935 2 15.5 2C14.7202 2 14.1131 2.10999 13.5518 2.35449C12.984 2.60181 12.4 3.01407 11.707 3.70703C11.3165 4.09756 10.6835 4.09756 10.293 3.70703C9.60001 3.01407 9.01604 2.60181 8.44824 2.35449C7.88687 2.10999 7.27982 2 6.5 2C5.30653 2 4.16227 2.47445 3.31836 3.31836C2.47445 4.16227 2 5.30653 2 6.5C2 8.11599 2.91951 9.45825 4.15039 10.7363L11 17.5859L17.2998 11.2861C18.792 9.82398 20 8.33595 20 6.5ZM22 6.5C22 9.2396 20.1925 11.2488 18.7061 12.7061L18.707 12.707L11.707 19.707C11.3165 20.0976 10.6835 20.0976 10.293 19.707L3.30469 12.7188C1.79906 11.2633 0 9.25297 0 6.5C0 4.77609 0.684334 3.12231 1.90332 1.90332C3.12231 0.684334 4.77609 0 6.5 0C7.48018 0 8.37344 0.140008 9.24707 0.520508C9.86029 0.787612 10.4318 1.16121 11 1.6416C11.5682 1.16121 12.1397 0.787612 12.7529 0.520508C13.6266 0.140008 14.5198 0 15.5 0C17.2239 0 18.8777 0.684334 20.0967 1.90332C21.3157 3.12231 22 4.77609 22 6.5Z" fill="var(--fill-0, black)"/>
</svg>
