<svg preserveAspectRatio="none" width="100%" height="100%" overflow="visible" style="display: block;" viewBox="0 0 11 11" fill="none" xmlns="http://www.w3.org/2000/svg">
<path id="Vector (Stroke)" d="M4.68419 3.47179C5.11327 3.50252 5.5308 3.62541 5.90832 3.83166C6.28583 4.03791 6.61451 4.32312 6.87218 4.66759C7.03749 4.88867 6.99259 5.20189 6.7716 5.3673C6.55047 5.5327 6.2368 5.48735 6.0714 5.26623C5.89964 5.03665 5.68044 4.84657 5.42882 4.7091C5.17719 4.57164 4.89891 4.48984 4.61291 4.46935C4.32689 4.44887 4.03977 4.49025 3.77111 4.59045C3.53595 4.67817 3.31964 4.80936 3.13341 4.97668L3.05529 5.05041L1.56164 6.54406L1.49523 6.61632C1.17285 6.98457 0.995839 7.45961 1.00011 7.95129C1.00473 8.4756 1.21529 8.97701 1.58605 9.34777C1.95682 9.71853 2.45822 9.9291 2.98253 9.93371C3.50693 9.93826 4.01256 9.7365 4.38976 9.37218L5.23839 8.52355C5.43366 8.32829 5.75016 8.32829 5.94542 8.52355C6.14059 8.71882 6.14066 9.03535 5.94542 9.23058L5.09044 10.0856L4.97619 10.191C4.42386 10.6746 3.71168 10.9401 2.97423 10.9337C2.18765 10.9269 1.43524 10.611 0.879018 10.0548C0.322794 9.49858 0.00694721 8.74618 0.000111958 7.95959C-0.00625613 7.22213 0.259245 6.50996 0.742788 5.95763L0.848256 5.84338L2.34826 4.34338L2.46496 4.23254C2.74429 3.98159 3.06878 3.78501 3.4215 3.65343C3.8245 3.50311 4.25517 3.44108 4.68419 3.47179ZM7.96984 0.000113312C8.7564 0.00696841 9.50885 0.322813 10.0651 0.87902C10.6212 1.43523 10.9366 2.18771 10.9435 2.97423C10.9503 3.76069 10.648 4.51835 10.1017 5.0841L8.59533 6.59045C8.29126 6.89458 7.9255 7.13006 7.52257 7.28039C7.11952 7.43074 6.68848 7.49227 6.25939 7.46154C5.83036 7.43079 5.41274 7.30839 5.03527 7.10216C4.65781 6.89592 4.32904 6.61066 4.0714 6.26623C3.90614 6.04511 3.9514 5.73188 4.17248 5.56652C4.3936 5.40114 4.70679 5.44648 4.87218 5.66759C5.04394 5.8972 5.26313 6.08724 5.51476 6.22472C5.76644 6.36223 6.04511 6.44398 6.33117 6.46447C6.61715 6.48492 6.90433 6.44358 7.17296 6.34338C7.44163 6.24314 7.68557 6.08622 7.8883 5.88341L9.3883 4.38341C9.74885 4.00688 9.948 3.50407 9.94347 2.98254C9.93886 2.45828 9.72871 1.95681 9.35802 1.58605C8.98721 1.21523 8.48544 1.00467 7.96105 1.00011C7.43666 0.995563 6.93151 1.19733 6.55431 1.56164L6.55382 1.56115L5.69933 2.41125C5.5035 2.60594 5.18699 2.60512 4.9923 2.40929C4.7977 2.21347 4.79849 1.89693 4.99425 1.70226L5.8546 0.847281L5.85949 0.842398C6.42529 0.295924 7.18325 -0.00672194 7.96984 0.000113312Z" fill="var(--fill-0, #6D6D6E)"/>
</svg>
