<svg preserveAspectRatio="none" width="100%" height="100%" overflow="visible" style="display: block;" viewBox="0 0 34 34" fill="none" xmlns="http://www.w3.org/2000/svg">
<path id="Vector (Stroke)" d="M30 5C30 4.07953 29.2538 3.33333 28.3333 3.33333H23.3333V30H28.3333C29.2538 30 30 29.2538 30 28.3333V5ZM13.3333 30H20V3.33333H13.3333V30ZM3.33333 28.3333C3.33333 29.2538 4.07953 30 5 30H10V3.33333H5C4.07953 3.33333 3.33333 4.07953 3.33333 5V28.3333ZM33.3333 28.3333C33.3333 31.0948 31.0948 33.3333 28.3333 33.3333H5C2.23858 33.3333 0 31.0948 0 28.3333V5C0 2.23858 2.23858 0 5 0H28.3333C31.0948 0 33.3333 2.23858 33.3333 5V28.3333Z" fill="var(--fill-0, #FAFAFA)"/>
</svg>
