<svg preserveAspectRatio="none" width="100%" height="100%" overflow="visible" style="display: block;" viewBox="0 0 15 14" fill="none" xmlns="http://www.w3.org/2000/svg">
<path id="Vector (Stroke)" d="M13.3333 4.33333C13.3333 3.53768 13.017 2.77485 12.4544 2.21224C11.8918 1.64963 11.129 1.33333 10.3333 1.33333C9.81346 1.33333 9.40875 1.40666 9.03451 1.56966C8.65597 1.73454 8.26666 2.00938 7.80469 2.47135C7.54434 2.7317 7.12233 2.7317 6.86198 2.47135C6.40001 2.00938 6.0107 1.73454 5.63216 1.56966C5.25791 1.40666 4.85321 1.33333 4.33333 1.33333C3.53768 1.33333 2.77485 1.64963 2.21224 2.21224C1.64963 2.77485 1.33333 3.53768 1.33333 4.33333C1.33333 5.41066 1.94634 6.3055 2.76693 7.15755L7.33333 11.724L11.5332 7.52409C12.528 6.54932 13.3333 5.5573 13.3333 4.33333ZM14.6667 4.33333C14.6667 6.15973 13.4617 7.49919 12.4707 8.4707L12.4714 8.47135L7.80469 13.138C7.54434 13.3984 7.12233 13.3984 6.86198 13.138L2.20313 8.47917C1.19938 7.50886 0 6.16865 0 4.33333C0 3.18406 0.456223 2.08154 1.26888 1.26888C2.08154 0.456223 3.18406 0 4.33333 0C4.98679 0 5.5823 0.0933385 6.16471 0.347005C6.57353 0.525075 6.95452 0.774143 7.33333 1.0944C7.71215 0.774143 8.09314 0.525075 8.50195 0.347005C9.08437 0.0933385 9.67988 0 10.3333 0C11.4826 0 12.5851 0.456223 13.3978 1.26888C14.2104 2.08154 14.6667 3.18406 14.6667 4.33333Z" fill="var(--fill-0, #A3A3A3)"/>
</svg>
