<svg preserveAspectRatio="none" width="100%" height="100%" overflow="visible" style="display: block;" viewBox="0 0 15 12" fill="none" xmlns="http://www.w3.org/2000/svg">
<path id="Vector (Stroke)" d="M13.3333 3.87956L8.3776 7.0293L8.3737 7.0319C8.06186 7.22719 7.70128 7.33073 7.33333 7.33073C6.96538 7.33073 6.60481 7.22719 6.29297 7.0319L6.28906 7.0293L1.33333 3.87956V10C1.33333 10.3682 1.63181 10.6667 2 10.6667H12.6667C13.0349 10.6667 13.3333 10.3682 13.3333 10V3.87956ZM13.3333 2C13.3333 1.63181 13.0349 1.33333 12.6667 1.33333H2C1.63181 1.33333 1.33333 1.63181 1.33333 2V2.30013L7 5.90169C7.09973 5.96417 7.21565 5.9974 7.33333 5.9974C7.45101 5.9974 7.56629 5.96417 7.66602 5.90169L13.3333 2.30013V2ZM14.6667 10C14.6667 11.1046 13.7712 12 12.6667 12H2C0.89543 12 0 11.1046 0 10V2C0 0.895431 0.89543 0 2 0H12.6667C13.7712 0 14.6667 0.895431 14.6667 2V10Z" fill="var(--fill-0, #FAFAFA)"/>
</svg>
