<svg preserveAspectRatio="none" width="100%" height="100%" overflow="visible" style="display: block;" viewBox="0 0 11 11" fill="none" xmlns="http://www.w3.org/2000/svg">
<path id="Vector (Stroke)" d="M3.4215 3.65343C3.82451 3.50311 4.25516 3.44132 4.6842 3.47204C5.11328 3.50277 5.5308 3.62541 5.90832 3.83166C6.2858 4.0379 6.61452 4.32291 6.87218 4.66735C7.03759 4.88847 6.99248 5.2019 6.77135 5.3673C6.55023 5.53268 6.2368 5.48758 6.0714 5.26647C5.89962 5.03682 5.6805 4.8466 5.42882 4.7091C5.17719 4.57163 4.89891 4.48984 4.61291 4.46935C4.32685 4.44886 4.03957 4.49021 3.77087 4.59045C3.53579 4.67815 3.3196 4.80919 3.13341 4.97643L3.05553 5.05041L1.56164 6.5443L1.49523 6.61657C1.17293 6.98479 0.995844 7.45944 1.00011 7.95104C1.00467 8.47539 1.21506 8.97696 1.58581 9.34777C1.95662 9.71859 2.45839 9.92915 2.98278 9.93371C3.50716 9.93825 4.01232 9.73649 4.38952 9.37218L5.23839 8.52331C5.43365 8.3281 5.75018 8.32809 5.94543 8.52331C6.14067 8.71855 6.14064 9.03507 5.94543 9.23034L5.09045 10.0856C5.08845 10.0876 5.08637 10.0895 5.08434 10.0914C4.51854 10.6379 3.76058 10.9403 2.97399 10.9335C2.18743 10.9266 1.43499 10.6112 0.878775 10.055C0.322572 9.49884 0.0069714 8.74639 0.000113395 7.95983C-0.00672179 7.17325 0.29569 6.41528 0.842154 5.84948L2.34826 4.34338L2.40612 4.28722C2.6984 4.01015 3.04365 3.79438 3.4215 3.65343ZM7.96984 0.000113393C8.75639 0.00697424 9.50885 0.322574 10.0651 0.878775C10.6213 1.43498 10.9366 2.18743 10.9435 2.97399C10.9503 3.76058 10.6479 4.51854 10.1014 5.08434C10.0995 5.08639 10.0973 5.08843 10.0953 5.09045L8.59533 6.5902C8.29121 6.89443 7.92537 7.12979 7.52233 7.28014C7.11928 7.43049 6.68848 7.49251 6.25939 7.46178C5.83037 7.43104 5.41298 7.30838 5.03551 7.10216C4.658 6.89591 4.32907 6.61095 4.0714 6.26647C3.906 6.04535 3.95135 5.73192 4.17248 5.56652C4.39357 5.40117 4.70678 5.44631 4.87218 5.66735C5.04396 5.897 5.26333 6.08698 5.51501 6.22448C5.76667 6.36196 6.04489 6.44374 6.33092 6.46422C6.61695 6.48471 6.90405 6.44358 7.17272 6.34338C7.44142 6.24314 7.68554 6.08624 7.8883 5.88341L9.38219 4.38952C9.7465 4.01232 9.94826 3.50716 9.94372 2.98278C9.93916 2.45839 9.7286 1.95662 9.35778 1.58581C8.98697 1.21505 8.4854 1.00467 7.96105 1.00011C7.43666 0.995557 6.93152 1.19732 6.55431 1.56164L5.69933 2.41149C5.5035 2.60613 5.18698 2.60511 4.9923 2.40929C4.79769 2.21347 4.79848 1.89694 4.99425 1.70226L5.85436 0.847281C5.85607 0.845585 5.85776 0.843826 5.85949 0.842154C6.42529 0.295694 7.18326 -0.00672178 7.96984 0.000113393Z" fill="var(--fill-0, #6D6D6E)"/>
</svg>
