<svg preserveAspectRatio="none" width="100%" height="100%" overflow="visible" style="display: block;" viewBox="0 0 37 37" fill="none" xmlns="http://www.w3.org/2000/svg">
<path id="Vector (Stroke)" d="M33.3333 23.3333C33.3333 18.9746 30.5441 15.269 26.6536 13.8997C26.3647 20.813 20.813 26.3647 13.8997 26.6536C15.269 30.5441 18.9746 33.3333 23.3333 33.3333C28.8562 33.3333 33.3333 28.8562 33.3333 23.3333ZM23.3333 13.3333C17.8105 13.3333 13.3333 17.8105 13.3333 23.3333C18.8562 23.3333 23.3333 18.8562 23.3333 13.3333ZM36.6667 23.3333C36.6667 30.6971 30.6971 36.6667 23.3333 36.6667C16.9992 36.6667 11.6968 32.2499 10.3377 26.3281C4.41646 24.9687 0 19.6671 0 13.3333C0 5.96954 5.96954 0 13.3333 0C19.6671 0 24.9687 4.41646 26.3281 10.3377C32.2499 11.6968 36.6667 16.9992 36.6667 23.3333ZM3.33333 13.3333C3.33333 17.6917 6.12227 21.3966 10.0122 22.7661C10.3015 15.8535 15.8535 10.3015 22.7661 10.0122C21.3966 6.12227 17.6917 3.33333 13.3333 3.33333C7.81049 3.33333 3.33333 7.81049 3.33333 13.3333Z" fill="var(--fill-0, #FAFAFA)"/>
</svg>
