<svg preserveAspectRatio="none" width="100%" height="100%" overflow="visible" style="display: block;" viewBox="0 0 14 15" fill="none" xmlns="http://www.w3.org/2000/svg">
<path id="Vector (Stroke)" d="M7.24342 13C7.42753 12.6811 7.83538 12.5717 8.15423 12.7559C8.47301 12.9399 8.58235 13.3478 8.39837 13.6667C8.22283 13.9707 7.96996 14.2229 7.66595 14.3984C7.36192 14.574 7.017 14.6667 6.66595 14.6667C6.31494 14.6666 5.96994 14.5739 5.66595 14.3984C5.36203 14.2229 5.10967 13.9706 4.93418 13.6667C4.75007 13.3478 4.85947 12.94 5.17832 12.7559C5.4971 12.572 5.90439 12.6813 6.08847 13C6.14698 13.1013 6.23129 13.1856 6.33261 13.2441C6.43392 13.3026 6.54897 13.3333 6.66595 13.3333C6.78291 13.3333 6.89798 13.3026 6.99928 13.2441C7.10062 13.1856 7.18491 13.1013 7.24342 13ZM9.99928 4.66667C9.99928 3.78273 9.64834 2.93499 9.02337 2.3099C8.39825 1.68477 7.55 1.33333 6.66595 1.33333C5.78195 1.33338 4.93426 1.68481 4.30918 2.3099C3.68411 2.93501 3.33261 3.78265 3.33261 4.66667C3.33261 6.23617 3.08661 7.33213 2.68808 8.17578C2.29444 9.00905 1.77208 9.54703 1.33327 10H11.9993C11.5596 9.54677 11.0379 9.00851 10.6445 8.17578C10.2458 7.33198 9.99928 6.23609 9.99928 4.66667ZM11.3326 4.66667C11.3326 6.09646 11.5566 6.98592 11.8495 7.60612C12.0698 8.0724 12.3413 8.41486 12.6503 8.75L12.9713 9.08724L12.9856 9.10286C13.1595 9.29399 13.2743 9.5314 13.3157 9.78646C13.3571 10.0414 13.3237 10.3029 13.2193 10.5391C13.1148 10.7753 12.9436 10.9762 12.7271 11.1172C12.5376 11.2406 12.3202 11.3139 12.0956 11.3301L11.9993 11.3333H1.33261C1.0742 11.3331 0.821168 11.2577 0.60475 11.1165C0.388324 10.9753 0.217464 10.7742 0.113214 10.5378C0.00899693 10.3013 -0.0242151 10.0395 0.0175107 9.7845C0.0592575 9.52961 0.17418 9.2924 0.34824 9.10156L0.361912 9.08659C0.804879 8.62927 1.18867 8.22781 1.48235 7.60612C1.77532 6.98593 1.99928 6.09648 1.99928 4.66667C1.99928 3.42899 2.4913 2.24171 3.36647 1.36654C4.24158 0.491558 5.42844 4.34349e-05 6.66595 0C7.90359 0 9.09092 0.491418 9.96608 1.36654C10.8412 2.24171 11.3326 3.42899 11.3326 4.66667Z" fill="var(--fill-0, #262626)"/>
</svg>
