<svg preserveAspectRatio="none" width="100%" height="100%" overflow="visible" style="display: block;" viewBox="0 0 19 17" fill="none" xmlns="http://www.w3.org/2000/svg">
<path id="Vector (Stroke)" d="M16.6667 5.41667C16.6667 4.4221 16.2713 3.46856 15.568 2.7653C14.8648 2.06204 13.9112 1.66667 12.9167 1.66667C12.2668 1.66667 11.7609 1.75833 11.2931 1.96208C10.82 2.16818 10.3333 2.51173 9.75586 3.08919C9.43042 3.41463 8.90291 3.41463 8.57747 3.08919C8.00001 2.51173 7.51337 2.16818 7.0402 1.96208C6.57239 1.75833 6.06651 1.66667 5.41667 1.66667C4.4221 1.66667 3.46856 2.06204 2.7653 2.7653C2.06204 3.46856 1.66667 4.4221 1.66667 5.41667C1.66667 6.76332 2.43292 7.88188 3.45866 8.94694L9.16667 14.6549L14.4165 9.40511C15.66 8.18665 16.6667 6.94662 16.6667 5.41667ZM18.3333 5.41667C18.3333 7.69966 16.8271 9.37398 15.5884 10.5884L15.5892 10.5892L9.75586 16.4225C9.43042 16.748 8.90291 16.748 8.57747 16.4225L2.75391 10.599C1.49922 9.38607 0 7.71081 0 5.41667C0 3.98008 0.570278 2.60192 1.5861 1.5861C2.60192 0.570278 3.98008 0 5.41667 0C6.23349 0 6.97787 0.116673 7.70589 0.433757C8.21691 0.656343 8.69315 0.967679 9.16667 1.368C9.64018 0.967679 10.1164 0.656343 10.6274 0.433757C11.3555 0.116673 12.0998 0 12.9167 0C14.3533 0 15.7314 0.570279 16.7472 1.5861C17.7631 2.60192 18.3333 3.98008 18.3333 5.41667Z" fill="var(--fill-0, #262626)"/>
</svg>
