<svg preserveAspectRatio="none" width="100%" height="100%" overflow="visible" style="display: block;" viewBox="0 0 11 10" fill="none" xmlns="http://www.w3.org/2000/svg">
<path id="Vector (Stroke)" d="M10 3.25C10 2.65326 9.76278 2.08114 9.34082 1.65918C8.91886 1.23722 8.34674 1 7.75 1C7.36009 1 7.05656 1.055 6.77588 1.17725C6.49198 1.30091 6.2 1.50704 5.85352 1.85352C5.65825 2.04878 5.34175 2.04878 5.14648 1.85352C4.8 1.50704 4.50802 1.30091 4.22412 1.17725C3.94344 1.055 3.63991 1 3.25 1C2.65326 1 2.08114 1.23722 1.65918 1.65918C1.23722 2.08114 1 2.65326 1 3.25C1 4.05799 1.45975 4.72913 2.0752 5.36816L5.5 8.79297L8.6499 5.64307C9.396 4.91199 10 4.16797 10 3.25ZM11 3.25C11 4.6198 10.0962 5.62439 9.35303 6.35303L9.35352 6.35352L5.85352 9.85352C5.65825 10.0488 5.34175 10.0488 5.14648 9.85352L1.65234 6.35938C0.899532 5.63164 0 4.62649 0 3.25C0 2.38805 0.342167 1.56115 0.95166 0.95166C1.56115 0.342167 2.38805 0 3.25 0C3.74009 0 4.18672 0.0700039 4.62354 0.260254C4.93015 0.393806 5.21589 0.580607 5.5 0.820801C5.78411 0.580607 6.06985 0.393806 6.37646 0.260254C6.81328 0.0700039 7.25991 0 7.75 0C8.61195 0 9.43885 0.342167 10.0483 0.95166C10.6578 1.56115 11 2.38805 11 3.25Z" fill="var(--fill-0, #262626)"/>
</svg>
