<svg preserveAspectRatio="none" width="100%" height="100%" overflow="visible" style="display: block;" viewBox="0 0 13 12" fill="none" xmlns="http://www.w3.org/2000/svg">
<path id="Vector (Stroke)" d="M11.6667 3.79167C11.6667 3.09547 11.3899 2.42799 10.8976 1.93571C10.4053 1.44343 9.73786 1.16667 9.04167 1.16667C8.58677 1.16667 8.23266 1.23083 7.90519 1.37345C7.57398 1.51772 7.23333 1.75821 6.8291 2.16243C6.6013 2.39024 6.23204 2.39024 6.00423 2.16243C5.60001 1.75821 5.25936 1.51772 4.92814 1.37345C4.60067 1.23083 4.24656 1.16667 3.79167 1.16667C3.09547 1.16667 2.42799 1.44343 1.93571 1.93571C1.44343 2.42799 1.16667 3.09547 1.16667 3.79167C1.16667 4.73433 1.70305 5.51731 2.42106 6.26286L6.41667 10.2585L10.0916 6.58358C10.962 5.73065 11.6667 4.86264 11.6667 3.79167ZM12.8333 3.79167C12.8333 5.38976 11.7789 6.56179 10.9119 7.41186L10.9124 7.41243L6.8291 11.4958C6.6013 11.7236 6.23204 11.7236 6.00423 11.4958L1.92773 7.41927C1.04945 6.57025 0 5.39757 0 3.79167C0 2.78605 0.399195 1.82135 1.11027 1.11027C1.82135 0.399195 2.78605 0 3.79167 0C4.36344 0 4.88451 0.0816712 5.39412 0.30363C5.75184 0.45944 6.08521 0.677375 6.41667 0.957601C6.74813 0.677375 7.0815 0.45944 7.43921 0.30363C7.94883 0.0816712 8.46989 0 9.04167 0C10.0473 0 11.012 0.399195 11.7231 1.11027C12.4341 1.82135 12.8333 2.78605 12.8333 3.79167Z" fill="var(--fill-0, #A3A3A3)"/>
</svg>
