<svg preserveAspectRatio="none" width="100%" height="100%" overflow="visible" style="display: block;" viewBox="0 0 37 37" fill="none" xmlns="http://www.w3.org/2000/svg">
<path id="Vector (Stroke)" d="M0 10.0033C0 8.5007 0.595383 7.05868 1.65527 5.99365L5.99365 1.65527C7.05868 0.595383 8.5007 0 10.0033 0C11.4117 8.16195e-05 12.7665 0.523021 13.8078 1.46159L14.012 1.65527L17.0068 4.65006C17.0094 4.65262 17.0124 4.65481 17.015 4.65739C17.0173 4.65967 17.0192 4.66242 17.0215 4.66471L22.0068 9.65006C22.0094 9.65262 22.0124 9.65481 22.015 9.65739C22.0173 9.65967 22.0192 9.66242 22.0215 9.66471L27.0068 14.6501C27.0094 14.6526 27.0124 14.6548 27.015 14.6574C27.0173 14.6597 27.0192 14.6624 27.0215 14.6647L32.0068 19.6501C32.0094 19.6526 32.0124 19.6548 32.015 19.6574C32.0173 19.6597 32.0192 19.6624 32.0215 19.6647L35.0122 22.6554C35.5404 23.1818 35.9599 23.8076 36.2459 24.4963C36.5319 25.185 36.6797 25.9241 36.6797 26.6699C36.6796 27.4156 36.5319 28.1541 36.2459 28.8428C35.9599 29.5315 35.5412 30.1572 35.013 30.6836L35.0122 30.6828L30.6828 35.0122C30.1564 35.5404 29.5315 35.9599 28.8428 36.2459C28.1541 36.5319 27.4156 36.6796 26.6699 36.6797C25.9241 36.6797 25.185 36.5319 24.4963 36.2459C23.8076 35.9599 23.1818 35.5412 22.6554 35.013V35.0122L1.65527 14.012C0.595461 12.9471 8.70637e-05 11.5057 0 10.0033ZM3.33333 10.0033C3.33342 10.623 3.57819 11.2177 4.01449 11.6577L25.0146 32.6579L25.0171 32.6595C25.2338 32.877 25.4912 33.0496 25.7747 33.1673C26.0584 33.2851 26.3628 33.3464 26.6699 33.3464C26.9769 33.3463 27.2808 33.285 27.5643 33.1673C27.8479 33.0495 28.106 32.877 28.3228 32.6595L32.6595 28.3228C32.877 28.106 33.0495 27.8479 33.1673 27.5643C33.285 27.2808 33.3463 26.9769 33.3464 26.6699C33.3464 26.3628 33.2851 26.0584 33.1673 25.7747C33.0496 25.4912 32.877 25.2338 32.6595 25.0171L32.6579 25.0146L30.8366 23.1934L28.6816 25.3483C28.0308 25.9992 26.9749 25.9992 26.3241 25.3483C25.6733 24.6974 25.6732 23.6416 26.3241 22.9907L28.479 20.8358L25.8366 18.1934L23.6816 20.3483C23.0308 20.9992 21.9749 20.9992 21.3241 20.3483C20.6733 19.6974 20.6732 18.6416 21.3241 17.9907L23.479 15.8358L20.8366 13.1934L18.6816 15.3483C18.0308 15.9992 16.9749 15.9992 16.3241 15.3483C15.6733 14.6974 15.6732 13.6416 16.3241 12.9907L18.479 10.8358L15.8366 8.19336L13.6816 10.3483C13.0308 10.9992 11.9749 10.9992 11.3241 10.3483C10.6733 9.69743 10.6732 8.64157 11.3241 7.99072L13.479 5.83577L11.661 4.01774L11.4884 3.8623C11.0709 3.5217 10.5468 3.33341 10.0033 3.33333C9.38201 3.33333 8.78591 3.57954 8.34554 4.01774L8.34473 4.01693L4.01693 8.34473C3.57872 8.7851 3.33333 9.382 3.33333 10.0033Z" fill="var(--fill-0, #FAFAFA)"/>
</svg>
