<svg preserveAspectRatio="none" width="100%" height="100%" overflow="visible" style="display: block;" viewBox="0 0 35 35" fill="none" xmlns="http://www.w3.org/2000/svg">
<path id="Vector (Stroke)" d="M13.5336 11.3461C13.9562 11.2963 14.3855 11.3553 14.7804 11.5186H14.782L33.1153 19.0186V19.0203C33.5439 19.1961 33.9146 19.4864 34.1863 19.8585L34.297 20.0212L34.393 20.1938C34.6028 20.6037 34.6959 21.0651 34.6599 21.5268C34.6188 22.0542 34.4113 22.5553 34.0675 22.9574C33.7236 23.3595 33.2605 23.6406 32.7459 23.7631L32.7475 23.7647L25.4998 25.4998L23.7664 32.7393C23.6452 33.2557 23.3648 33.7221 22.9623 34.0675C22.5598 34.4128 22.0572 34.6203 21.5284 34.6615C20.9996 34.7027 20.4708 34.5757 20.0196 34.297C19.5684 34.0181 19.2167 33.6019 19.017 33.1104V33.1088L11.5186 14.7804V14.7787C11.332 14.3268 11.2821 13.83 11.3754 13.3497L11.4177 13.1674C11.5319 12.7499 11.7531 12.3682 12.0606 12.0606L12.1973 11.9337C12.5256 11.6512 12.9225 11.4584 13.3497 11.3754L13.5336 11.3461ZM21.1248 29.4581L22.2576 24.7218V24.7201C22.4013 24.1223 22.708 23.5759 23.143 23.1414C23.578 22.7069 24.1254 22.4006 24.7234 22.2576L29.4565 21.1231L15.3549 15.3549L21.1248 29.4581ZM6.79208 16.8523C7.42606 16.1851 8.48154 16.1581 9.14885 16.7921C9.81566 17.4261 9.84287 18.4817 9.20907 19.1488L6.04175 22.4822C5.40773 23.1491 4.35218 23.1762 3.68498 22.5424C3.01772 21.9085 2.99099 20.853 3.62476 20.1856L6.79208 16.8523ZM0.0603046 9.55738C0.305047 8.67018 1.22226 8.14914 2.10946 8.39364L6.94344 9.72665C7.83071 9.97147 8.35195 10.8901 8.10718 11.7774C7.86214 12.6644 6.94352 13.1843 6.0564 12.9395L1.22404 11.6065C0.33685 11.3618 -0.184198 10.4446 0.0603046 9.55738ZM20.1856 3.62476C20.853 2.99112 21.9085 3.01785 22.5424 3.68498C23.1762 4.35215 23.149 5.40772 22.4822 6.04175L19.1488 9.20907C18.4816 9.84291 17.4261 9.81576 16.7921 9.14885C16.1581 8.48151 16.185 7.42605 16.8523 6.79208L20.1856 3.62476ZM9.55738 0.0603046C10.4446 -0.184198 11.3618 0.33685 11.6065 1.22404L12.9395 6.0564C13.1843 6.94352 12.6644 7.86214 11.7774 8.10718C10.8901 8.35195 9.97147 7.83071 9.72665 6.94344L8.39364 2.10946C8.14914 1.22226 8.67018 0.305047 9.55738 0.0603046Z" fill="var(--fill-0, #FAFAFA)"/>
</svg>
