<svg preserveAspectRatio="none" width="100%" height="100%" overflow="visible" style="display: block;" viewBox="0 0 14 15" fill="none" xmlns="http://www.w3.org/2000/svg">
<path id="Vector (Stroke)" d="M10.6667 4H2.66667V12.6667C2.66667 12.7832 2.73158 12.9555 2.88802 13.112C3.04446 13.2684 3.21682 13.3333 3.33333 13.3333H10C10.1165 13.3333 10.2889 13.2684 10.4453 13.112C10.6017 12.9555 10.6667 12.7832 10.6667 12.6667V4ZM8.66667 2C8.66667 1.88349 8.60175 1.71112 8.44531 1.55469C8.28888 1.39825 8.11651 1.33333 8 1.33333H5.33333C5.21682 1.33333 5.04446 1.39825 4.88802 1.55469C4.73159 1.71112 4.66667 1.88349 4.66667 2V2.66667H8.66667V2ZM10 2.66667H12.6667C13.0349 2.66667 13.3333 2.96514 13.3333 3.33333C13.3333 3.70152 13.0349 4 12.6667 4H12V12.6667C12 13.2168 11.7316 13.7111 11.388 14.0547C11.0445 14.3982 10.5502 14.6667 10 14.6667H3.33333C2.78318 14.6667 2.28888 14.3982 1.94531 14.0547C1.60175 13.7111 1.33333 13.2168 1.33333 12.6667V4H0.666667C0.298477 4 0 3.70152 0 3.33333C0 2.96514 0.298477 2.66667 0.666667 2.66667H3.33333V2C3.33333 1.44985 3.60175 0.955543 3.94531 0.611979C4.28888 0.268415 4.78318 0 5.33333 0H8C8.55015 0 9.04446 0.268415 9.38802 0.611979C9.73159 0.955543 10 1.44985 10 2V2.66667Z" fill="var(--fill-0, #FAFAFA)"/>
</svg>
