<svg preserveAspectRatio="none" width="100%" height="100%" overflow="visible" style="display: block;" viewBox="0 0 37 34" fill="none" xmlns="http://www.w3.org/2000/svg">
<path id="Vector (Stroke)" d="M33.3333 18.3333C33.3333 17.4129 32.5871 16.6667 31.6667 16.6667H28.3333C27.4129 16.6667 26.6667 17.4129 26.6667 18.3333V28.3333C26.6667 29.2538 27.4129 30 28.3333 30H31.6667C32.5871 30 33.3333 29.2538 33.3333 28.3333V18.3333ZM26.6667 8.33333V5C26.6667 4.55797 26.4909 4.13418 26.1784 3.82161C25.9048 3.54804 25.5461 3.37929 25.1644 3.34147L25 3.33333H5C4.55797 3.33333 4.13417 3.50905 3.82161 3.82161C3.50905 4.13417 3.33333 4.55797 3.33333 5V16.6667C3.33333 17.1087 3.50905 17.5325 3.82161 17.8451C4.13418 18.1576 4.55797 18.3333 5 18.3333H18.3333C19.2538 18.3333 20 19.0795 20 20C20 20.9205 19.2538 21.6667 18.3333 21.6667H16.6667V25H18.3333C19.2538 25 20 25.7462 20 26.6667C20 27.5871 19.2538 28.3333 18.3333 28.3333H10C9.07952 28.3333 8.33333 27.5871 8.33333 26.6667C8.33333 25.7462 9.07952 25 10 25H13.3333V21.6667H5C3.67392 21.6667 2.40252 21.1395 1.46484 20.2018C0.527162 19.2641 0 17.9927 0 16.6667V5C0 3.67392 0.527162 2.40253 1.46484 1.46484C2.40253 0.527162 3.67392 0 5 0H25C26.3261 0 27.5975 0.527162 28.5352 1.46484C29.4728 2.40252 30 3.67392 30 5V8.33333C30 9.25381 29.2538 10 28.3333 10C27.4129 10 26.6667 9.25381 26.6667 8.33333ZM36.6667 28.3333C36.6667 31.0948 34.4281 33.3333 31.6667 33.3333H28.3333C25.5719 33.3333 23.3333 31.0948 23.3333 28.3333V18.3333C23.3333 15.5719 25.5719 13.3333 28.3333 13.3333H31.6667C34.4281 13.3333 36.6667 15.5719 36.6667 18.3333V28.3333Z" fill="var(--fill-0, #FAFAFA)"/>
</svg>
