<svg preserveAspectRatio="none" width="100%" height="100%" overflow="visible" style="display: block;" viewBox="0 0 15 15" fill="none" xmlns="http://www.w3.org/2000/svg">
<path id="Vector (Stroke)" d="M13.3333 2.54622C13.3334 2.22463 13.2053 1.91624 12.9779 1.6888C12.7506 1.46147 12.4426 1.33346 12.1211 1.33333C11.7996 1.33329 11.4911 1.46096 11.2637 1.68815L10.2806 2.67122L11.9955 4.38607L12.9779 3.40365L13.0586 3.31445C13.2354 3.09875 13.3333 2.82753 13.3333 2.54622ZM2.36524 10.5885C2.28792 10.6657 2.23059 10.7608 2.19858 10.8652L1.49936 13.166L3.80405 12.4674L3.88022 12.4395C3.95467 12.4064 4.02273 12.3599 4.08074 12.3021L11.0521 5.32878L9.33725 3.61393L2.36524 10.5885ZM14.6667 2.54622C14.6666 3.17929 14.4308 3.78822 14.0078 4.25521L13.9206 4.34635L12.5287 5.73763C12.5109 5.76079 12.4926 5.78415 12.4714 5.80534C12.4501 5.82656 12.4269 5.84487 12.4037 5.86263L5.02215 13.2461C4.79034 13.4772 4.50521 13.6482 4.19207 13.7435L1.28972 14.6237L1.28777 14.6243C1.11503 14.6762 0.931444 14.68 0.75652 14.6361C0.581554 14.5921 0.421345 14.5018 0.293629 14.3743C0.165877 14.2468 0.0749036 14.0865 0.0306084 13.9115C-0.0136003 13.7366 -0.0099276 13.553 0.0416761 13.3802L0.0429782 13.3776L0.923187 10.4759L0.923838 10.474C1.01996 10.1606 1.1917 9.87534 1.42384 9.64388L8.806 2.25977C8.82317 2.2376 8.84164 2.21566 8.86199 2.19531C8.88251 2.17481 8.90407 2.15594 8.92644 2.13867L10.3203 0.745443C10.7978 0.26805 11.4459 -8.46583e-05 12.1211 2.00503e-08C12.7963 0.000124762 13.4439 0.268617 13.9212 0.746094C14.3985 1.22359 14.6668 1.87108 14.6667 2.54622Z" fill="var(--fill-0, #262626)"/>
</svg>
