<svg preserveAspectRatio="none" width="100%" height="100%" overflow="visible" style="display: block;" viewBox="0 0 10 15" fill="none" xmlns="http://www.w3.org/2000/svg">
<path id="Vector (Stroke)" d="M8 9.66667C8 9.22464 7.82428 8.80084 7.51172 8.48828C7.19916 8.17572 6.77536 8 6.33333 8H5.33333V11.3333H6.33333C6.77536 11.3333 7.19916 11.1576 7.51172 10.8451C7.82428 10.5325 8 10.1087 8 9.66667ZM9.33333 9.66667C9.33333 10.4623 9.01704 11.2251 8.45443 11.7878C7.89182 12.3504 7.12898 12.6667 6.33333 12.6667H5.33333V14C5.33333 14.3682 5.03486 14.6667 4.66667 14.6667C4.29848 14.6667 4 14.3682 4 14V12.6667H0.666667C0.298477 12.6667 0 12.3682 0 12C0 11.6318 0.298477 11.3333 0.666667 11.3333H4V8H3C2.20435 8 1.44152 7.6837 0.878906 7.12109C0.316297 6.55848 0 5.79565 0 5C0 4.20435 0.316297 3.44152 0.878906 2.87891C1.44152 2.3163 2.20435 2 3 2H4V0.666667C4 0.298477 4.29848 0 4.66667 0C5.03486 0 5.33333 0.298477 5.33333 0.666667V2H8C8.36819 2 8.66667 2.29848 8.66667 2.66667C8.66667 3.03486 8.36819 3.33333 8 3.33333H5.33333V6.66667H6.33333C7.12898 6.66667 7.89182 6.98296 8.45443 7.54557C9.01704 8.10818 9.33333 8.87102 9.33333 9.66667ZM1.33333 5C1.33333 5.44203 1.50905 5.86582 1.82161 6.17839C2.13418 6.49095 2.55797 6.66667 3 6.66667H4V3.33333H3C2.55797 3.33333 2.13418 3.50905 1.82161 3.82161C1.50905 4.13418 1.33333 4.55797 1.33333 5Z" fill="var(--fill-0, #262626)"/>
</svg>
