<svg preserveAspectRatio="none" width="100%" height="100%" overflow="visible" style="display: block;" viewBox="0 0 18.6705 18.6705" fill="none" xmlns="http://www.w3.org/2000/svg">
<path id="Vector (Stroke)" d="M12.3971 0.390524C12.9179 -0.130082 13.7632 -0.130268 14.2839 0.390524C14.8042 0.91134 14.8032 1.75543 14.2826 2.27594L3.10417 13.4504C2.82392 13.7308 2.66672 14.1113 2.66667 14.5077C2.66673 14.9044 2.82495 15.2846 3.10547 15.565C3.38599 15.8454 3.76611 16.0039 4.16276 16.0038C4.35898 16.0037 4.55309 15.9643 4.73438 15.8892C4.91581 15.814 5.0812 15.7039 5.22005 15.565L16.3945 4.39183C16.9152 3.87124 17.7593 3.87133 18.2799 4.39183C18.8006 4.91256 18.8007 5.75658 18.2799 6.27724L7.10547 17.4504C6.71906 17.8369 6.2601 18.1435 5.75521 18.3528C5.25035 18.5619 4.70924 18.6704 4.16276 18.6705C3.05908 18.6706 2.00068 18.2319 1.22005 17.4517C0.439451 16.6714 0.000295187 15.6128 5.78533e-08 14.509C-0.000183893 13.4051 0.43831 12.3457 1.21875 11.565L12.3971 0.390524Z" fill="var(--fill-0, #007122)"/>
</svg>
