<svg preserveAspectRatio="none" width="100%" height="100%" overflow="visible" style="display: block;" viewBox="0 0 36.6667 30" fill="none" xmlns="http://www.w3.org/2000/svg">
<path id="Vector (Stroke)" d="M11.6667 23.3333V6.66667C11.6667 5.78261 11.3152 4.93502 10.6901 4.3099C10.065 3.68477 9.21739 3.33333 8.33333 3.33333H6.66667C5.74619 3.33333 5 2.58714 5 1.66667C5 0.746192 5.74619 0 6.66667 0H8.33333C10.1014 0 11.7966 0.702883 13.0469 1.95312C13.146 2.05225 13.2412 2.15457 13.3333 2.25911C13.4255 2.15457 13.5207 2.05225 13.6198 1.95312C14.87 0.702883 16.5652 0 18.3333 0H20C20.9205 0 21.6667 0.746192 21.6667 1.66667C21.6667 2.58714 20.9205 3.33333 20 3.33333H18.3333C17.4493 3.33333 16.6017 3.68477 15.9766 4.3099C15.3514 4.93502 15 5.78261 15 6.66667V23.3333C15 24.2174 15.3514 25.065 15.9766 25.6901C16.6017 26.3152 17.4493 26.6667 18.3333 26.6667H20C20.9205 26.6667 21.6667 27.4129 21.6667 28.3333C21.6667 29.2538 20.9205 30 20 30H18.3333C16.5652 30 14.87 29.2971 13.6198 28.0469C13.5204 27.9475 13.4257 27.8441 13.3333 27.7393C13.2409 27.8441 13.1463 27.9475 13.0469 28.0469C11.7966 29.2971 10.1014 30 8.33333 30H6.66667C5.74619 30 5 29.2538 5 28.3333C5 27.4129 5.74619 26.6667 6.66667 26.6667H8.33333C9.21739 26.6667 10.065 26.3152 10.6901 25.6901C11.3152 25.065 11.6667 24.2174 11.6667 23.3333ZM0 18.3333V11.6667C0 10.3406 0.527162 9.06919 1.46484 8.13151C2.40253 7.19383 3.67392 6.66667 5 6.66667H6.66667C7.58714 6.66667 8.33333 7.41286 8.33333 8.33333C8.33333 9.25381 7.58714 10 6.66667 10H5C4.55797 10 4.13418 10.1757 3.82161 10.4883C3.50905 10.8008 3.33333 11.2246 3.33333 11.6667V18.3333C3.33333 18.7754 3.50905 19.1992 3.82161 19.5117C4.13418 19.8243 4.55797 20 5 20H6.66667C7.58714 20 8.33333 20.7462 8.33333 21.6667C8.33333 22.5871 7.58714 23.3333 6.66667 23.3333H5C3.67392 23.3333 2.40253 22.8062 1.46484 21.8685C0.527162 20.9308 0 19.6594 0 18.3333ZM33.3333 18.3333V11.6667C33.3333 11.2246 33.1576 10.8008 32.8451 10.4883C32.5325 10.1757 32.1087 10 31.6667 10H20C19.0795 10 18.3333 9.25381 18.3333 8.33333C18.3333 7.41286 19.0795 6.66667 20 6.66667H31.6667C32.9928 6.66667 34.2641 7.19383 35.2018 8.13151C36.1395 9.06919 36.6667 10.3406 36.6667 11.6667V18.3333C36.6667 19.6594 36.1395 20.9308 35.2018 21.8685C34.2641 22.8062 32.9928 23.3333 31.6667 23.3333H20C19.0795 23.3333 18.3333 22.5871 18.3333 21.6667C18.3333 20.7462 19.0795 20 20 20H31.6667C32.1087 20 32.5325 19.8243 32.8451 19.5117C33.1576 19.1992 33.3333 18.7754 33.3333 18.3333Z" fill="var(--fill-0, #FAFAFA)"/>
</svg>
