<svg preserveAspectRatio="none" width="100%" height="100%" overflow="visible" style="display: block;" viewBox="0 0 11 5.99996" fill="none" xmlns="http://www.w3.org/2000/svg">
<path id="Vector (Stroke)" d="M11 3.5C11 3.77614 10.7761 4 10.5 4C10.2238 4 9.99996 3.77614 9.99996 3.5V1.70703L6.60348 5.10352C6.40822 5.29878 6.09171 5.29878 5.89645 5.10352L3.74996 2.95703L0.853478 5.85352C0.658216 6.04878 0.341709 6.04878 0.146447 5.85352C-0.0488155 5.65825 -0.0488155 5.34175 0.146447 5.14648L3.39645 1.89648L3.43453 1.8623C3.63092 1.70213 3.92042 1.71343 4.10348 1.89648L6.24996 4.04297L9.29293 1H7.49996C7.22382 1 6.99996 0.776142 6.99996 0.5C6.99996 0.223858 7.22382 0 7.49996 0H10.5C10.7761 0 11 0.223858 11 0.5V3.5Z" fill="var(--fill-0, #004706)"/>
</svg>
